<?xml version="1.0" encoding="UTF-8" standalone="no"?>
<svg
   xmlns:dc="http://purl.org/dc/elements/1.1/"
   xmlns:cc="http://creativecommons.org/ns#"
   xmlns:rdf="http://www.w3.org/1999/02/22-rdf-syntax-ns#"
   xmlns:svg="http://www.w3.org/2000/svg"
   xmlns="http://www.w3.org/2000/svg"
   xmlns:sodipodi="http://sodipodi.sourceforge.net/DTD/sodipodi-0.dtd"
   xmlns:inkscape="http://www.inkscape.org/namespaces/inkscape"
   version="1.1"
   width="444.66101"
   height="95.500587"
   viewBox="0 60 444.66101 95.500586"
   id="svg4217"
   inkscape:version="0.92.5 (2060ec1f9f, 2020-04-08)"
   sodipodi:docname="pretix-logo.svg">
  <metadata
     id="metadata4622">
    <rdf:RDF>
      <cc:Work
         rdf:about="">
        <dc:format>image/svg+xml</dc:format>
        <dc:type
           rdf:resource="http://purl.org/dc/dcmitype/StillImage" />
        <dc:title>Microsoft Windows Millenium Edition Logo</dc:title>
      </cc:Work>
    </rdf:RDF>
  </metadata>
  <defs
     id="defs4620">
    <inkscape:path-effect
       effect="skeletal"
       id="path-effect1503"
       is_visible="true"
       pattern="m 277.74857,629.23489 v 34.09241 c 11.37842,0 20.61218,9.2834 20.61218,20.72022 0,11.4368 -9.23376,20.68725 -20.61218,20.68725 v 34.09424 h 68.33679 v -9.50134 h 2.98462 v 9.50134 h 38.27271 v -34.09424 c -0.0104,2e-5 -0.0208,0 -0.0311,0 -11.37841,0 -20.61402,-9.25045 -20.61402,-20.68725 0,-11.43682 9.23561,-20.72022 20.61402,-20.72022 0.0105,0 0.0208,-2e-5 0.0311,0 v -34.09241 h -38.27271 v 9.09302 h -2.98462 v -9.09302 z m 68.33679,16.09314 h 2.98462 v 14.00025 h -2.98462 z m 0,21.00037 h 2.98462 v 14.00024 h -2.98462 z m -25.48278,2.93152 c 8.73226,0 14.64111,4.65412 14.64111,14.53674 0,8.88913 -5.17751,14.53674 -12.44568,14.53674 -1.77782,0 -3.24318,-0.21015 -3.97522,-0.41931 v 11.29578 h -9.93347 v -37.80579 c 2.66674,-1.25494 6.2752,-2.14416 11.71326,-2.14416 z m -0.0513,5.80261 c -0.73204,0 -1.25791,0.10497 -1.72851,0.26184 v 16.94275 c 0.36602,0.15686 0.89129,0.26001 1.57104,0.26001 3.55566,0 5.01892,-2.92558 5.01892,-8.67737 0,-5.90866 -1.25351,-8.78723 -4.86145,-8.78723 z m 25.53406,12.26624 h 2.98462 v 14.00024 h -2.98462 z m 0,20.99853 h 2.98462 v 14.00024 h -2.98462 z"
       copytype="single"
       prop_scale="1"
       scale_y_rel="false"
       spacing="0"
       normal_offset="0"
       tang_offset="0"
       prop_units="false"
       vertical_pattern="false"
       fuse_tolerance="0" />
  </defs>
  <sodipodi:namedview
     pagecolor="#ffffff"
     bordercolor="#666666"
     borderopacity="1"
     objecttolerance="10"
     gridtolerance="10"
     guidetolerance="10"
     inkscape:pageopacity="0"
     inkscape:pageshadow="2"
     inkscape:window-width="1720"
     inkscape:window-height="1376"
     id="namedview4618"
     showgrid="false"
     inkscape:zoom="1.410678"
     inkscape:cx="86.795063"
     inkscape:cy="103.32914"
     inkscape:window-x="1920"
     inkscape:window-y="27"
     inkscape:window-maximized="0"
     inkscape:current-layer="svg4217"
     fit-margin-top="0"
     fit-margin-left="0"
     fit-margin-right="0"
     fit-margin-bottom="0"
     showguides="false"
     inkscape:lockguides="true"
     inkscape:snap-text-baseline="false"
     inkscape:snap-intersection-paths="true"
     inkscape:snap-bbox="true"
     inkscape:bbox-nodes="true"
     inkscape:snap-bbox-edge-midpoints="true"
     inkscape:snap-bbox-midpoints="true"
     inkscape:snap-global="true"
     inkscape:snap-page="true"
     inkscape:snap-center="true"
     inkscape:snap-object-midpoints="true" />
  <title
     id="title4219">Microsoft Windows Millenium Edition Logo</title>
  <filter
     id="shadow">
    <feGaussianBlur
       stdDeviation=".5"
       id="feGaussianBlur4222" />
  </filter>
  <g
     id="g5585"
     transform="translate(-21.01053,106.09049)">
    <g
       inkscape:transform-center-y="-42.659552"
       inkscape:transform-center-x="17.606753"
       transform="matrix(0.54990445,0.2285961,-0.2285961,0.54990445,47.458532,-412.88161)"
       id="layer1-3">
      <path
         sodipodi:nodetypes="ccsccccccccssscccccccccccccccccsssccccssccssscccccccccccc"
         inkscape:connector-curvature="0"
         id="rect3888-7"
         d="m 280.83256,578.0771 v 34.09241 c 11.37842,0 20.61218,9.2834 20.61218,20.72022 0,11.4368 -9.23376,20.68725 -20.61218,20.68725 v 34.09424 c 22.84272,-3.45877 42.60146,-15.75974 65.44418,-19.2185 l 0.0246,-9.50435 2.98509,-0.0172 -0.0248,9.50541 c 12.912,0.47711 22.49158,2.53705 38.08103,10.39244 v -34.09424 c -0.0104,2e-5 -0.0208,0 -0.0311,0 -11.37841,0 -20.04999,-18.65307 -19.85908,-29.84125 0.19092,-11.18819 8.48067,-11.56622 19.85908,-11.56622 0.0105,0 0.0208,-2e-5 0.0311,0 V 569.2349 c -11.17409,-4.52395 -22.34871,-9.05086 -36.82291,-9.30407 l -0.0226,9.09572 -2.98732,0.0163 0.0225,-9.09503 c -24.12876,0.23358 -36.56881,12.17784 -66.69977,18.12928 z m 66.63095,-2.04193 2.9872,-0.0157 -0.15683,13.90972 -2.98684,0.0145 z m -0.25932,20.81306 2.98663,-0.0142 -0.23475,13.72632 -2.9862,0.0144 z m -25.71554,4.48021 c 8.84148,-0.95184 14.71072,3.3477 14.54241,13.01704 -0.15139,8.69728 -2.35461,23.35022 -9.67759,24.11538 -1.79123,0.18716 -3.26578,0.15103 -4.00114,0.0318 l -0.13884,11.10213 -10.24018,8.45725 0.69321,-44.30405 c 2.72306,-1.60787 3.31606,-11.82682 8.82213,-12.41959 z m -0.13647,5.71528 c -0.74062,0.0809 -1.27441,0.24418 -1.75305,0.4528 l 2.83249,25.45852 c 0.0424,0.38115 0.89585,0.15032 1.58173,0.0734 3.58773,-0.40219 2.02229,-12.23575 2.11416,-17.8695 0.0944,-5.7874 -1.12513,-8.5138 -4.77533,-8.11525 z m 25.49483,10.37602 2.986,-0.0149 -0.23556,13.72438 -2.98565,0.0163 z m -0.33889,20.62793 2.98549,-0.0169 -0.15919,13.90749 -2.98522,0.0175 z"
         style="color:#000000;display:inline;overflow:visible;visibility:visible;fill:#3b1c4a;fill-opacity:1;fill-rule:nonzero;stroke:none;stroke-width:1;marker:none;enable-background:accumulate" />
    </g>
    <path
       inkscape:connector-curvature="0"
       id="path4548-1-0"
       d="m 68.76026,-33.269609 -7.18945,0.31442 -2.57637,6.17579 7.26453,-0.3989 z"
       style="fill:#3b1c4a;fill-opacity:1;stroke-width:4.69284821" />
    <path
       style="fill:#3b1c4a;fill-opacity:1;stroke-width:4.69284821"
       inkscape:connector-curvature="0"
       id="path4550-3-2"
       d="m 57.89631,-24.052859 -2.57637,6.096011 7.26453,-0.38951 2.51067,-6.020921 z" />
    <path
       style="fill:#3b1c4a;fill-opacity:1;stroke-width:4.69284821"
       inkscape:connector-curvature="0"
       id="path4552-5-9"
       d="m 54.38137,-15.685509 -2.50129,6.1710905 7.26453,-0.3895 2.50129,-6.0209305 z" />
    <path
       inkscape:connector-curvature="0"
       id="path4554-3-0"
       d="m 57.97609,-7.1726785 -7.26453,0.22995 -2.50128,6.17579 7.27391,-0.38482 z"
       style="fill:#3b1c4a;fill-opacity:1;stroke-width:4.69284821" />
    <path
       style="fill:#3b1c4a;fill-opacity:1;stroke-width:4.69284821"
       inkscape:connector-curvature="0"
       id="path4556-1-9"
       d="m 47.03706,1.973681 -2.57637,6.17109 7.34431,-0.38481 2.49659,-6.09132 z" />
    <path
       style="fill:#3b1c4a;fill-opacity:1;stroke-width:4.69284821"
       inkscape:connector-curvature="0"
       id="path4558-2-9"
       d="m 43.59251,10.411421 -2.50129,6.01623 7.18945,-0.30503 2.57637,-6.09601 z" />
    <path
       inkscape:connector-curvature="0"
       id="path4560-8-4"
       d="m 44.69064,24.870091 2.50129,-6.09601 -7.18945,0.30972 -2.57637,6.08194 z"
       style="fill:#3b1c4a;fill-opacity:1;stroke-width:4.69284821" />
    <path
       inkscape:connector-curvature="0"
       id="path4562-4-5"
       d="m 54.38137,-35.540949 -1.79267,4.37843 5.7769,-0.23934 1.87714,-4.44882 z"
       style="fill:#3b1c4a;fill-opacity:1;stroke-width:4.69284821" />
    <path
       style="fill:#3b1c4a;fill-opacity:1;stroke-width:4.69284821"
       inkscape:connector-curvature="0"
       id="path4564-1-1"
       d="m 50.71156,-26.709009 -1.79736,4.37373 5.78159,-0.22525 1.87714,-4.45821 z" />
    <path
       style="fill:#3b1c4a;fill-opacity:1;stroke-width:4.69284821"
       inkscape:connector-curvature="0"
       id="path4566-4-0"
       d="m 47.19193,-18.341658 -1.79736,4.378419 5.86606,-0.15955 1.86775,-4.60838 z" />
    <path
       inkscape:connector-curvature="0"
       id="path4568-2-3"
       d="m 49.45857,-9.9039185 -5.86606,0.31442 -1.87244,4.37843 5.86606,-0.14548 z"
       style="fill:#3b1c4a;fill-opacity:1;stroke-width:4.69284821" />
    <path
       style="fill:#3b1c4a;fill-opacity:1;stroke-width:4.69284821"
       inkscape:connector-curvature="0"
       id="path4570-3-7"
       d="M 39.9274,-0.7669385 38.05495,3.691261 43.9961,3.456621 45.79346,-1.0813585 Z" />
    <path
       style="fill:#3b1c4a;fill-opacity:1;stroke-width:4.69284821"
       inkscape:connector-curvature="0"
       id="path4572-3-8"
       d="m 36.41245,7.680181 -1.80205,4.45352 5.86606,-0.23465 1.79267,-4.53329 z" />
    <path
       inkscape:connector-curvature="0"
       id="path4574-8-8"
       d="m 32.74265,16.422961 -1.80675,4.45821 5.86137,-0.23465 1.87714,-4.5286 z"
       style="fill:#3b1c4a;fill-opacity:1;stroke-width:4.69284821" />
    <path
       inkscape:connector-curvature="0"
       id="path4576-1-6"
       d="m 51.805,-38.112629 1.56272,-3.75428 -4.45352,0.62884 -1.48763,3.66981 z"
       style="fill:#3b1c4a;fill-opacity:1;stroke-width:4.69284821" />
    <path
       style="fill:#3b1c4a;fill-opacity:1;stroke-width:4.69284821"
       inkscape:connector-curvature="0"
       id="path4578-4-0"
       d="m 45.23501,-32.410819 -1.56272,3.67919 4.44882,-0.54906 1.56272,-3.82467 z" />
    <path
       style="fill:#3b1c4a;fill-opacity:1;stroke-width:4.69284821"
       inkscape:connector-curvature="0"
       id="path4580-1-4"
       d="m 41.72007,-23.963689 -1.56272,3.6698 4.45351,-0.54437 1.6425,-3.82467 z" />
    <path
       inkscape:connector-curvature="0"
       id="path4582-2-6"
       d="m 38.12534,-15.220919 -1.56271,3.67919 4.37373,-0.54906 1.6425,-3.83406 z"
       style="fill:#3b1c4a;fill-opacity:1;stroke-width:4.69284821" />
    <path
       style="fill:#3b1c4a;fill-opacity:1;stroke-width:4.69284821"
       inkscape:connector-curvature="0"
       id="path4584-2-7"
       d="m 34.45554,-6.3842885 -1.47825,3.66512 4.36904,-0.53967 1.56741,-3.74959 z" />
    <path
       style="fill:#3b1c4a;fill-opacity:1;stroke-width:4.69284821"
       inkscape:connector-curvature="0"
       id="path4586-9-6"
       d="m 30.9359,2.048771 -1.47825,3.6698 4.36905,-0.54437 1.56271,-3.82936 z" />
    <path
       inkscape:connector-curvature="0"
       id="path4588-2-0"
       d="m 27.26609,10.800931 -1.40785,3.59941 4.37843,-0.47867 1.56272,-3.82467 z"
       style="fill:#3b1c4a;fill-opacity:1;stroke-width:4.69284821" />
    <path
       inkscape:connector-curvature="0"
       id="path4590-5-9"
       d="m 43.59251,-45.776049 -1.08874,2.50129 3.3507,-0.0798 1.1779,-2.73593 z"
       style="fill:#3b1c4a;fill-opacity:1;stroke-width:4.69284821" />
    <path
       style="fill:#3b1c4a;fill-opacity:1;stroke-width:4.69284821"
       inkscape:connector-curvature="0"
       id="path4592-2-7"
       d="m 40.00248,-37.023889 -1.09343,2.58107 3.28499,-0.0798 1.08874,-2.73124 z" />
    <path
       style="fill:#3b1c4a;fill-opacity:1;stroke-width:4.69284821"
       inkscape:connector-curvature="0"
       id="path4594-9-5"
       d="m 36.48754,-28.665929 -1.01835,2.58107 h 3.20052 l 1.09344,-2.73593 z" />
    <path
       inkscape:connector-curvature="0"
       id="path4596-1-9"
       d="m 32.88813,-19.904378 -1.08874,2.57168 h 3.2803 l 1.16852,-2.73593 z"
       style="fill:#3b1c4a;fill-opacity:1;stroke-width:4.69284821" />
    <path
       style="fill:#3b1c4a;fill-opacity:1;stroke-width:4.69284821"
       inkscape:connector-curvature="0"
       id="path4598-2-7"
       d="m 29.21832,-11.002049 -1.09344,2.5012905 3.28031,-0.0751 1.08874,-2.5763705 z" />
    <path
       style="fill:#3b1c4a;fill-opacity:1;stroke-width:4.69284821"
       inkscape:connector-curvature="0"
       id="path4600-1-8"
       d="m 25.70338,-2.5596085 -1.09344,2.5763695 3.285,-0.0751 1.16382,-2.6655395 z" />
    <path
       inkscape:connector-curvature="0"
       id="path4602-1-5"
       d="m 22.02888,6.192551 -1.01835,2.58576 3.28499,-0.0892 1.09343,-2.73593 z"
       style="fill:#3b1c4a;fill-opacity:1;stroke-width:4.69284821" />
    <path
       inkscape:connector-curvature="0"
       id="path4614-5-7"
       d="m 111.40417,43.547621 c -0.62415,0.62415 -0.93388,1.32808 -0.93388,2.18218 0,0.86348 0.30973,1.48294 0.93388,2.10708 0.54437,0.63354 1.32338,0.86349 2.11178,0.86349 0.85879,0 1.56272,-0.22995 2.18687,-0.86349 0.54906,-0.62414 0.85879,-1.24829 0.85879,-2.10708 0,-0.8588 -0.30973,-1.55803 -0.85879,-2.18218 -0.62884,-0.54906 -1.32808,-0.86348 -2.18687,-0.86348 -0.7884,0 -1.5721,0.30972 -2.11178,0.86348 z m -0.31442,2.18218 c 0,-0.70393 0.22995,-1.32808 0.69923,-1.78798 0.46929,-0.48805 1.09344,-0.70393 1.72228,-0.70393 0.70393,0 1.33277,0.22057 1.72227,0.70393 0.54438,0.4599 0.77432,1.08874 0.77432,1.78798 0,0.70392 -0.22994,1.32807 -0.77432,1.79736 -0.39419,0.46928 -1.01834,0.70392 -1.72227,0.70392 -0.62415,0 -1.25299,-0.23933 -1.72228,-0.70392 -0.46459,-0.46929 -0.69923,-1.09344 -0.69923,-1.79736 z"
       style="stroke-width:4.69284821" />
    <path
       inkscape:connector-curvature="0"
       id="path4616-8-9"
       d="m 113.75059,44.012211 h -1.32807 v 3.43517 h 0.46928 v -1.48294 h 0.62415 l 0.93857,1.48294 h 0.54907 l -0.93857,-1.48294 c 0.54906,-0.15487 0.85879,-0.47867 0.85879,-1.01835 -0.005,-0.61946 -0.3942,-0.93388 -1.17322,-0.93388 z m -0.23933,1.47825 h -0.62415 v -1.08874 h 0.70862 c 0.54906,0 0.78371,0.23933 0.78371,0.54906 -0.009,0.38482 -0.23934,0.53968 -0.86818,0.53968 z"
       style="stroke-width:4.69284821" />
  </g>
  <g
     aria-label="Pretix®95"
     style="font-style:normal;font-variant:normal;font-weight:normal;font-stretch:normal;font-size:16px;line-height:1.25;font-family:Latinka-Bold;-inkscape-font-specification:Latinka-Bold;letter-spacing:0px;word-spacing:0px;fill:#000000;fill-opacity:1;stroke:none"
     id="text122">
    <path
       d="M 138.78571,154.27338 V 96.467389 h 26.51204 q 7.08821,0 12.06055,2.073567 4.97233,2.073564 7.55371,6.072594 2.58138,3.99902 2.58138,9.62728 0,4.84537 -2.15821,8.8444 -2.13704,3.97786 -5.90332,6.13606 -3.04687,1.69271 -6.55924,2.41211 -3.51237,0.7194 -8.78093,0.7194 h -9.43684 v 21.92058 z m 15.86914,-46.80339 v 13.43587 h 7.78645 q 4.48568,0 6.45345,-1.54459 1.96778,-1.5446 1.96778,-5.03581 0,-3.49121 -1.96778,-5.16276 -1.96777,-1.69271 -6.45345,-1.69271 z"
       style="font-style:normal;font-variant:normal;font-weight:normal;font-stretch:normal;font-size:86.66666412px;font-family:'Franklin Gothic';-inkscape-font-specification:'Franklin Gothic';letter-spacing:-5.5px;fill:#000000"
       id="path5604" />
    <path
       d="m 186.85992,154.27338 v -40.9847 h 13.43587 v 8.40006 q 6.05144,-8.8444 15.25554,-8.8444 v 13.35124 q -3.72396,-1.39649 -6.58041,-1.39649 -6.32649,0 -8.67513,4.69727 v 24.77702 z"
       style="font-style:normal;font-variant:normal;font-weight:normal;font-stretch:normal;font-size:86.66666412px;font-family:'Franklin Gothic';-inkscape-font-specification:'Franklin Gothic';letter-spacing:-5.5px;fill:#000000"
       id="path5606" />
    <path
       d="m 244.01129,140.49896 8.67513,4.14714 q -5.88217,10.49479 -18.11198,10.49479 -6.11491,0 -10.93913,-2.60254 -4.82422,-2.6237 -7.53255,-7.34212 -2.68718,-4.73958 -2.68718,-10.68522 0,-5.98796 2.7295,-11.08724 2.75065,-5.12044 7.46907,-8.06153 4.71842,-2.94108 10.26204,-2.94108 5.56478,0 10.00814,2.83529 4.46452,2.83529 6.98242,7.87109 2.51791,5.01465 2.51791,11.2142 v 1.98893 h -25.75033 q 0.42318,9.62728 8.42123,9.62728 5.28971,0 7.95573,-5.45899 z m -16.29232,-11.27767 h 12.31445 q -0.25391,-8.4847 -5.90332,-8.4847 -2.79297,0 -4.57031,2.3698 -1.77735,2.34863 -1.84082,6.1149 z"
       style="font-style:normal;font-variant:normal;font-weight:normal;font-stretch:normal;font-size:86.66666412px;font-family:'Franklin Gothic';-inkscape-font-specification:'Franklin Gothic';letter-spacing:-5.5px;fill:#000000"
       id="path5608" />
    <path
       d="m 256.62326,143.52468 v -20.88379 l -7.27864,0.0846 v -9.54265 l 7.53255,0.27507 1.22721,-14.134116 h 12.12403 v 14.134116 l 8.67513,-0.27507 v 9.54265 l -8.75977,-0.0846 v 15.34017 q 0,3.02572 0.33854,4.46452 0.3597,1.4388 1.69271,2.17936 1.35417,0.7194 4.29525,0.7194 1.56575,0 2.68717,-0.16927 v 9.09831 q -3.32194,0.69824 -7.44791,0.69824 -6.15723,0 -9.39454,-1.14258 -3.2373,-1.14258 -4.46451,-3.57585 -1.22722,-2.45442 -1.22722,-6.72851 z"
       style="font-style:normal;font-variant:normal;font-weight:normal;font-stretch:normal;font-size:86.66666412px;font-family:'Franklin Gothic';-inkscape-font-specification:'Franklin Gothic';letter-spacing:-5.5px;fill:#000000"
       id="path5610" />
    <path
       d="m 280.68218,154.27338 v -40.9847 h 13.43588 v 40.9847 z m 0,-45.93587 V 96.213482 h 13.43588 v 12.124028 z"
       style="font-style:normal;font-variant:normal;font-weight:normal;font-stretch:normal;font-size:86.66666412px;font-family:'Franklin Gothic';-inkscape-font-specification:'Franklin Gothic';letter-spacing:-5.5px;fill:#000000"
       id="path5612" />
    <path
       d="m 293.29416,154.27338 14.47265,-20.46061 -13.43587,-20.52409 h 15.69987 l 5.9668,10.21972 7.02474,-10.21972 h 12.03939 l -12.99154,18.11198 15.1709,22.87272 h -15.78451 l -7.78646,-12.653 -8.50585,12.653 z"
       style="letter-spacing:0px;fill:#000000"
       id="path5614" />
    <path
       d="m 342.36155,110.52794 q 0.93099,0 1.76757,0.35807 0.83985,0.35482 1.48112,1.0026 0.64454,0.64779 0.9961,1.49089 0.35482,0.8431 0.35482,1.78711 0,1.25 -0.61849,2.31445 -0.61849,1.06445 -1.67969,1.68945 -1.05794,0.62175 -2.30143,0.62175 -0.9375,0 -1.78386,-0.36133 -0.84635,-0.36133 -1.48763,-1.0026 -0.63802,-0.64453 -0.99609,-1.48763 -0.35807,-0.8431 -0.35807,-1.78711 0,-1.25326 0.61849,-2.31771 0.62174,-1.06771 1.68619,-1.6862 1.06446,-0.62174 2.32097,-0.62174 z m 0,0.94401 q -0.97331,0 -1.80339,0.49479 -0.82682,0.49154 -1.31185,1.34114 -0.48502,0.84961 -0.48502,1.84571 0,0.99609 0.48502,1.85221 0.48503,0.85287 1.3086,1.34766 0.82682,0.49479 1.79362,0.49479 0.9733,0 1.79687,-0.49479 0.82682,-0.49479 1.30859,-1.34115 0.48178,-0.84961 0.48178,-1.8457 0,-0.74544 -0.2767,-1.42578 -0.27669,-0.68034 -0.77148,-1.19141 -0.49479,-0.51107 -1.14909,-0.79427 -0.6543,-0.2832 -1.37695,-0.2832 z m -2.00196,6.20117 v -5.0944 h 2.16146 q 0.67057,0 1.11979,0.14648 0.40365,0.1237 0.64779,0.48503 0.2474,0.36133 0.2474,0.82357 0,0.54036 -0.34831,0.90494 -0.18555,0.20508 -0.5599,0.37435 l 0.89193,2.36003 h -1.52018 l -0.67709,-2.10612 h -0.61523 v 2.10612 z m 1.34766,-4.1211 v 1.05469 h 0.80078 q 0.2832,0 0.43945,-0.13997 0.15951,-0.14323 0.15951,-0.39388 0,-0.52084 -0.59896,-0.52084 z"
       style="font-size:13.33333302px;letter-spacing:0px;baseline-shift:super;fill:#000000"
       id="path5616" />
    <path
       d="m 356.97743,152.96153 v -7.78646 q 3.21615,1.52344 6.51693,2.32747 3.30078,0.80404 6.47461,0.80404 8.46354,0 12.9069,-5.67057 4.48568,-5.71289 5.12044,-17.30795 -2.45443,3.63933 -6.2207,5.58594 -3.76628,1.94662 -8.33659,1.94662 -9.47917,0 -15.02279,-5.71289 -5.5013,-5.75521 -5.5013,-15.69987 0,-9.73308 5.75521,-15.615237 5.75521,-5.882161 15.31901,-5.882161 10.96029,0 16.71549,8.421223 5.79753,8.378905 5.79753,24.374995 0,14.93816 -7.10937,23.86719 -7.06706,8.88672 -19.04297,8.88672 -3.21615,0 -6.51693,-0.63477 -3.30078,-0.63476 -6.85547,-1.90429 z m 17.01172,-26.78711 q 5.75521,0 9.09831,-3.93555 3.38541,-3.93554 3.38541,-10.79101 0,-6.81315 -3.38541,-10.7487 -3.3431,-3.977865 -9.09831,-3.977865 -5.75521,0 -9.14062,3.977865 -3.3431,3.93555 -3.3431,10.7487 0,6.85547 3.3431,10.79101 3.38541,3.93555 9.14062,3.93555 z"
       style="font-style:normal;font-variant:normal;font-weight:normal;font-stretch:normal;font-family:'Franklin Gothic Book';-inkscape-font-specification:'Franklin Gothic Book, ';letter-spacing:-5.5px;fill:#000000"
       id="path5618" />
    <path
       d="m 406.44813,91.09304 h 33.55794 v 7.19401 h -25.72916 v 15.48828 q 1.86197,-0.63476 3.72395,-0.93099 1.86198,-0.33854 3.72396,-0.33854 10.57943,0 16.75781,5.79753 6.17839,5.79752 6.17839,15.69986 0,10.19857 -6.34766,15.86914 -6.34765,5.62826 -17.90039,5.62826 -3.97786,0 -8.125,-0.67708 -4.10481,-0.67709 -8.50586,-2.03125 v -8.5905 q 3.8086,2.07357 7.8711,3.08919 4.0625,1.01563 8.59049,1.01563 7.32097,0 11.59505,-3.85091 4.27409,-3.85091 4.27409,-10.45248 0,-6.60156 -4.27409,-10.45247 -4.27408,-3.85091 -11.59505,-3.85091 -3.42773,0 -6.85547,0.76172 -3.38541,0.76172 -6.9401,2.36979 z"
       style="font-style:normal;font-variant:normal;font-weight:normal;font-stretch:normal;font-family:'Franklin Gothic Book';-inkscape-font-specification:'Franklin Gothic Book, ';letter-spacing:-5.5px;fill:#000000"
       id="path5620" />
  </g>
  <g
     aria-label="rami.io®"
     style="font-style:normal;font-variant:normal;font-weight:normal;font-stretch:normal;font-size:16px;line-height:1.25;font-family:Latinka-Bold;-inkscape-font-specification:Latinka-Bold;letter-spacing:0px;word-spacing:0px;fill:#000000;fill-opacity:1;stroke:none"
     id="text116">
    <path
       d="m 128.00629,75.152992 q -0.70638,-0.410157 -1.54948,-0.592448 -0.82031,-0.205078 -1.82292,-0.205078 -3.55468,0 -5.46875,2.324218 -1.89127,2.301433 -1.89127,6.63086 v 13.444011 h -4.2155 V 71.233721 h 4.2155 v 3.964844 q 1.32161,-2.324219 3.44075,-3.440756 2.11914,-1.139323 5.14974,-1.139323 0.43295,0 0.95703,0.06836 0.52409,0.04557 1.16211,0.159505 z"
       style="font-size:46.66666794px;fill:#000000"
       id="path5587" />
    <path
       d="m 144.00238,83.925778 q -5.08138,0 -7.04101,1.16211 -1.95964,1.162109 -1.95964,3.964844 0,2.233073 1.45834,3.554687 1.48112,1.298828 4.01041,1.298828 3.48633,0 5.58269,-2.460937 2.11914,-2.483724 2.11914,-6.585287 v -0.934245 z m 8.36264,-1.731771 v 14.560548 h -4.19271 v -3.873698 q -1.43555,2.324219 -3.57748,3.440755 -2.14192,1.09375 -5.24088,1.09375 -3.91927,0 -6.24349,-2.1875 -2.30144,-2.210287 -2.30144,-5.901693 0,-4.306641 2.8711,-6.494141 2.89388,-2.1875 8.61328,-2.1875 h 5.87891 v -0.410156 q 0,-2.89388 -1.91407,-4.466146 -1.89127,-1.595052 -5.33203,-1.595052 -2.1875,0 -4.26107,0.524088 -2.07356,0.524089 -3.98763,1.572266 V 72.39583 q 2.30144,-0.888672 4.46615,-1.321614 2.16471,-0.45573 4.2155,-0.45573 5.5371,0 8.27148,2.871094 2.73438,2.871094 2.73438,8.704427 z"
       style="font-size:46.66666794px;fill:#000000"
       id="path5589" />
    <path
       d="m 180.87087,76.132809 q 1.57227,-2.825521 3.75977,-4.169922 2.1875,-1.344401 5.14974,-1.344401 3.98763,0 6.15234,2.802735 2.16472,2.779948 2.16472,7.929687 v 15.403647 h -4.2155 V 81.487627 q 0,-3.66862 -1.29883,-5.445963 -1.29883,-1.777344 -3.96484,-1.777344 -3.25846,0 -5.14974,2.164713 -1.89128,2.164714 -1.89128,5.901693 v 14.423829 h -4.21549 V 81.487627 q 0,-3.691406 -1.29883,-5.445963 -1.29883,-1.777344 -4.01042,-1.777344 -3.21289,0 -5.10416,2.1875 -1.89128,2.164713 -1.89128,5.878906 v 14.423829 h -4.21549 V 71.233721 h 4.21549 v 3.964844 q 1.43555,-2.347006 3.44076,-3.463542 2.0052,-1.116537 4.76237,-1.116537 2.77994,0 4.71679,1.412761 1.95964,1.41276 2.89388,4.101562 z"
       style="font-size:46.66666794px;fill:#000000"
       id="path5591" />
    <path
       d="m 206.46007,71.233721 h 4.1927 v 25.520834 h -4.1927 z m 0,-9.934896 h 4.1927 v 5.309245 h -4.1927 z"
       style="font-size:46.66666794px;fill:#000000"
       id="path5593" />
    <path
       d="m 220.01801,90.966794 h 4.80795 v 5.787761 h -4.80795 z"
       style="font-size:46.66666794px;fill:#000000"
       id="path5595" />
    <path
       d="m 234.25955,71.233721 h 4.19271 v 25.520834 h -4.19271 z m 0,-9.934896 h 4.19271 v 5.309245 h -4.19271 z"
       style="font-size:46.66666794px;fill:#000000"
       id="path5597" />
    <path
       d="m 257.11437,74.173174 q -3.37239,0 -5.33203,2.643229 -1.95963,2.620443 -1.95963,7.200521 0,4.580078 1.93684,7.223308 1.95964,2.620442 5.35482,2.620442 3.34961,0 5.30925,-2.643229 1.95963,-2.643229 1.95963,-7.200521 0,-4.534505 -1.95963,-7.177734 -1.95964,-2.666016 -5.30925,-2.666016 z m 0,-3.554688 q 5.46875,0 8.5905,3.554688 3.12174,3.554688 3.12174,9.84375 0,6.266276 -3.12174,9.84375 -3.12175,3.554688 -8.5905,3.554688 -5.49153,0 -8.61328,-3.554688 -3.09896,-3.577474 -3.09896,-9.84375 0,-6.289062 3.09896,-9.84375 3.12175,-3.554688 8.61328,-3.554688 z"
       style="font-size:46.66666794px;fill:#000000"
       id="path5599" />
    <path
       d="m 278.04535,71.757159 q -0.85286,0 -1.58854,0.30599 -0.73568,0.305989 -1.34766,0.917968 -0.61198,0.61198 -0.92448,1.360677 -0.3125,0.742188 -0.3125,1.588542 0,0.839844 0.3125,1.582031 0.3125,0.735677 0.92448,1.347657 0.61198,0.611979 1.34766,0.924479 0.73568,0.305989 1.58854,0.305989 0.85938,0 1.59505,-0.305989 0.74219,-0.3125 1.35417,-0.924479 0.60547,-0.605469 0.90495,-1.341146 0.30599,-0.735677 0.30599,-1.588542 0,-0.865885 -0.30599,-1.601562 -0.30599,-0.742188 -0.90495,-1.347657 -0.61198,-0.611979 -1.35417,-0.917968 -0.73567,-0.30599 -1.59505,-0.30599 z m 0,-0.670573 q 0.98958,0 1.84245,0.358073 0.85937,0.358073 1.56901,1.067708 0.70964,0.709636 1.0612,1.5625 0.35156,0.852865 0.35156,1.855469 0,0.989583 -0.35156,1.842448 -0.35156,0.846354 -1.0612,1.55599 -0.70964,0.709635 -1.56901,1.067708 -0.85287,0.358073 -1.84245,0.358073 -0.98958,0 -1.84896,-0.358073 -0.85286,-0.358073 -1.5625,-1.067708 -0.70963,-0.709636 -1.06119,-1.55599 -0.35157,-0.852865 -0.35157,-1.842448 0,-1.002604 0.35157,-1.855469 0.35156,-0.852864 1.06119,-1.5625 0.70964,-0.709635 1.5625,-1.067708 0.85938,-0.358073 1.84896,-0.358073 z m -0.17578,2.695313 h -0.80078 v 1.796875 h 0.80078 q 0.71615,0 0.99609,-0.201823 0.28646,-0.201823 0.28646,-0.690104 0,-0.494792 -0.28646,-0.696615 -0.28645,-0.208333 -0.99609,-0.208333 z m 0.0456,-0.670573 q 1.14584,0 1.71224,0.390625 0.56641,0.384114 0.56641,1.171875 0,0.559896 -0.34505,0.924479 -0.33854,0.364583 -0.96354,0.47526 0.15625,0.05208 0.37109,0.30599 0.22135,0.247396 0.52083,0.722656 l 0.89193,1.451823 h -1.11979 l -0.83985,-1.360677 q -0.38411,-0.625 -0.625,-0.78776 -0.23437,-0.169271 -0.58593,-0.169271 h -0.42969 v 2.317708 h -1.00912 v -5.442708 z"
       style="font-size:13.33333302px;baseline-shift:super;fill:#000000"
       id="path5601" />
  </g>
  <g
     id="g4260"
     transform="translate(254.09646,169.2348)">
    <g
       id="g4262" />
    <g
       id="g4268" />
  </g>
</svg>
